<?xml version="1.0" encoding="UTF-8"?>
<svg id="Capa_2" data-name="Capa 2" xmlns="http://www.w3.org/2000/svg" xmlns:xlink="http://www.w3.org/1999/xlink" viewBox="0 0 250 250">
  <defs>
    <style>
      .cls-1 {
        fill: transparent;
      }

      .cls-2 {
        fill: url(#New_Pattern_Swatch_16);
      }

      .cls-3, .cls-4, .cls-5 {
        fill: none;
      }

      .cls-4, .cls-5 {
        stroke: #000;
        stroke-linecap: round;
        stroke-linejoin: round;
        stroke-width: 5px;
      }

      .cls-5 {
        fill-rule: evenodd;
      }

      @media (prefers-color-scheme: dark) {
        .cls-4, .cls-5 {
          stroke: #fff;
          stroke-linecap: round;
          stroke-linejoin: round;
          stroke-width: 5px;
        }
      }
    </style>
    <pattern id="New_Pattern_Swatch_16" data-name="New Pattern Swatch 16" x="0" y="0" width="164.39" height="164.39" patternTransform="translate(-1221.38 -150) scale(1.01 1)" patternUnits="userSpaceOnUse" viewBox="0 0 164.39 164.39">
      <g>
        <rect class="cls-3" x="0" y="0" width="164.39" height="164.39"/>
        <g>
          <rect class="cls-1" x="82.19" y="123.29" width="82.19" height="82.19"/>
          <path class="cls-5" d="M99.95,157.82c0-3.49-2.83-6.31-6.31-6.31s-6.31,2.83-6.31,6.31,2.83,6.31,6.31,6.31,6.31-2.83,6.31-6.31Z"/>
          <circle class="cls-4" cx="153.95" cy="136.86" r="6.31"/>
          <path class="cls-5" d="M119.33,133.76c0-3.49-2.83-6.31-6.31-6.31s-6.31,2.83-6.31,6.31,2.83,6.31,6.31,6.31,6.31-2.83,6.31-6.31Z"/>
          <path class="cls-5" d="M137.04,164.32c0-3.49-2.83-6.31-6.31-6.31s-6.31,2.83-6.31,6.31,2.83,6.31,6.31,6.31,6.31-2.83,6.31-6.31Z"/>
        </g>
        <g>
          <rect class="cls-1" y="123.29" width="82.19" height="82.19"/>
          <path class="cls-5" d="M17.76,157.82c0-3.49-2.83-6.31-6.31-6.31s-6.31,2.83-6.31,6.31,2.83,6.31,6.31,6.31,6.31-2.83,6.31-6.31Z"/>
          <circle class="cls-4" cx="71.75" cy="136.86" r="6.31"/>
          <path class="cls-5" d="M37.14,133.76c0-3.49-2.83-6.31-6.31-6.31s-6.31,2.83-6.31,6.31,2.83,6.31,6.31,6.31,6.31-2.83,6.31-6.31Z"/>
          <path class="cls-5" d="M54.84,164.32c0-3.49-2.83-6.31-6.31-6.31s-6.31,2.83-6.31,6.31,2.83,6.31,6.31,6.31,6.31-2.83,6.31-6.31Z"/>
        </g>
        <g>
          <rect class="cls-1" x="123.29" y="41.1" width="82.19" height="82.19"/>
          <path class="cls-5" d="M141.04,75.63c0-3.49-2.83-6.31-6.31-6.31s-6.31,2.83-6.31,6.31,2.83,6.31,6.31,6.31,6.31-2.83,6.31-6.31Z"/>
          <path class="cls-5" d="M160.43,51.57c0-3.49-2.83-6.31-6.31-6.31s-6.31,2.83-6.31,6.31,2.83,6.31,6.31,6.31,6.31-2.83,6.31-6.31Z"/>
          <path class="cls-5" d="M159.7,106.5c0-3.49-2.83-6.31-6.31-6.31s-6.31,2.83-6.31,6.31,2.83,6.31,6.31,6.31,6.31-2.83,6.31-6.31Z"/>
          <path class="cls-5" d="M178.13,82.13c0-3.49-2.83-6.31-6.31-6.31s-6.31,2.83-6.31,6.31,2.83,6.31,6.31,6.31,6.31-2.83,6.31-6.31Z"/>
        </g>
        <g>
          <rect class="cls-1" x="41.1" y="41.1" width="82.19" height="82.19"/>
          <path class="cls-5" d="M58.85,75.63c0-3.49-2.83-6.31-6.31-6.31s-6.31,2.83-6.31,6.31,2.83,6.31,6.31,6.31,6.31-2.83,6.31-6.31Z"/>
          <circle class="cls-4" cx="112.85" cy="54.67" r="6.31"/>
          <path class="cls-5" d="M78.24,51.57c0-3.49-2.83-6.31-6.31-6.31s-6.31,2.83-6.31,6.31,2.83,6.31,6.31,6.31,6.31-2.83,6.31-6.31Z"/>
          <path class="cls-5" d="M77.51,106.5c0-3.49-2.83-6.31-6.31-6.31s-6.31,2.83-6.31,6.31,2.83,6.31,6.31,6.31,6.31-2.83,6.31-6.31Z"/>
          <path class="cls-5" d="M95.94,82.13c0-3.49-2.83-6.31-6.31-6.31s-6.31,2.83-6.31,6.31,2.83,6.31,6.31,6.31,6.31-2.83,6.31-6.31Z"/>
          <path class="cls-5" d="M123.37,103.18c0-3.49-2.83-6.31-6.31-6.31s-6.31,2.83-6.31,6.31,2.83,6.31,6.31,6.31,6.31-2.83,6.31-6.31Z"/>
        </g>
        <g>
          <rect class="cls-1" x="-41.1" y="41.1" width="82.19" height="82.19"/>
          <circle class="cls-4" cx="30.66" cy="54.67" r="6.31"/>
          <path class="cls-5" d="M13.75,82.13c0-3.49-2.83-6.31-6.31-6.31s-6.31,2.83-6.31,6.31,2.83,6.31,6.31,6.31,6.31-2.83,6.31-6.31Z"/>
          <path class="cls-5" d="M41.17,103.18c0-3.49-2.83-6.31-6.31-6.31s-6.31,2.83-6.31,6.31,2.83,6.31,6.31,6.31,6.31-2.83,6.31-6.31Z"/>
        </g>
        <g>
          <rect class="cls-1" x="82.19" y="-41.1" width="82.19" height="82.19"/>
          <path class="cls-5" d="M99.95-6.56c0-3.49-2.83-6.31-6.31-6.31s-6.31,2.83-6.31,6.31,2.83,6.31,6.31,6.31,6.31-2.83,6.31-6.31Z"/>
          <path class="cls-5" d="M118.6,24.3c0-3.49-2.83-6.31-6.31-6.31s-6.31,2.83-6.31,6.31,2.83,6.31,6.31,6.31,6.31-2.83,6.31-6.31Z"/>
          <path class="cls-5" d="M137.04-.07c0-3.49-2.83-6.31-6.31-6.31s-6.31,2.83-6.31,6.31,2.83,6.31,6.31,6.31,6.31-2.83,6.31-6.31Z"/>
          <path class="cls-5" d="M164.46,20.99c0-3.49-2.83-6.31-6.31-6.31s-6.31,2.83-6.31,6.31,2.83,6.31,6.31,6.31,6.31-2.83,6.31-6.31Z"/>
        </g>
        <g>
          <rect class="cls-1" y="-41.1" width="82.19" height="82.19"/>
          <path class="cls-5" d="M17.76-6.56c0-3.49-2.83-6.31-6.31-6.31s-6.31,2.83-6.31,6.31S7.95-.25,11.44-.25s6.31-2.83,6.31-6.31Z"/>
          <path class="cls-5" d="M36.41,24.3c0-3.49-2.83-6.31-6.31-6.31s-6.31,2.83-6.31,6.31,2.83,6.31,6.31,6.31,6.31-2.83,6.31-6.31Z"/>
          <path class="cls-5" d="M54.84-.07c0-3.49-2.83-6.31-6.31-6.31S42.21-3.55,42.21-.07s2.83,6.31,6.31,6.31S54.84,3.42,54.84-.07Z"/>
          <path class="cls-5" d="M82.27,20.99c0-3.49-2.83-6.31-6.31-6.31s-6.31,2.83-6.31,6.31,2.83,6.31,6.31,6.31,6.31-2.83,6.31-6.31Z"/>
        </g>
        <path class="cls-5" d="M.08,20.99c0-3.49-2.83-6.31-6.31-6.31s-6.31,2.83-6.31,6.31,2.83,6.31,6.31,6.31S.08,24.48,.08,20.99Z"/>
      </g>
    </pattern>
  </defs>
  <g id="patterns">
    <rect class="cls-2" width="250" height="250"/>
  </g>
</svg>